# xmcd CD database file
#
# Track frame offsets:
#	150
#	22291
#	37205
#	56982
#	77928
#	97944
#	116674
#	139965
#	165176
#	182180
#	202350
#	217897
#	237041
#
# Disc length: 3470 seconds
#
# Revision: 0
# Processed by: cddbd v1.5PL3 Copyright (c) Steve Scherf et al.
# Submitted via: CDex 1.51
#
DISCID=c10d8c0d
DTITLE=Gioaria - Like a Dream
DYEAR=2004
DGENRE=New Age
TTITLE0=Psalmus Ode
TTITLE1=Like a Dream
TTITLE2=Rachel's Song
TTITLE3=Conquest of Paradise
TTITLE4=Come to Me
TTITLE5=The Friends of Mr. Cairo
TTITLE6=Voices
TTITLE7=Losing Sleep (Still, My Heart)
TTITLE8=So Long Ago, So Clear
TTITLE9=March With Me
TTITLE10=Italian Song
TTITLE11=Chariots of Fire
TTITLE12=Prelude
EXTD=YEAR: 2004
EXTT0=
EXTT1=
EXTT2=
EXTT3=
EXTT4=
EXTT5=
EXTT6=
EXTT7=
EXTT8=
EXTT9=
EXTT10=
EXTT11=
EXTT12=
PLAYORDER=
